<?xml version="1.0" encoding="iso-8859-1"?>
<!-- Uploaded to: SVG Repo, www.svgrepo.com, Generator: SVG Repo Mixer Tools -->
<svg height="800px" width="800px" version="1.1" id="Layer_1" xmlns="http://www.w3.org/2000/svg" xmlns:xlink="http://www.w3.org/1999/xlink" 
	 viewBox="0 0 512 512" xml:space="preserve">
<path style="fill:#E5DFD7;" d="M54.522,416.835c-9.474-15.691-14.935-34.066-14.935-53.694c0-57.453,46.74-104.194,104.192-104.194
	c2.138,0,4.26,0.072,6.365,0.2c38.59-57.55,73.386-83.58,109.237-81.792c24.543,1.222,48.662,15.597,73.738,43.945
	c21.798,24.642,45.079,60.742,71.07,110.21c37.744,0.736,68.227,31.647,68.227,69.564c0,5.311-0.629,10.605-1.825,15.761H54.522z"/>
<path style="fill:#A39B8D;" d="M271.303,225.971h-2.44c-6.147,0-11.13-4.983-11.13-11.13s4.983-11.13,11.13-11.13h2.44
	c6.147,0,11.13,4.983,11.13,11.13S277.451,225.971,271.303,225.971z M236.179,242.021c0-6.147-4.983-11.13-11.13-11.13h-2.44
	c-6.147,0-11.13,4.983-11.13,11.13c0,6.147,4.983,11.13,11.13,11.13h2.44C231.196,253.152,236.179,248.169,236.179,242.021z
	 M296.262,278.261c0-6.147-4.983-11.13-11.13-11.13h-2.44c-6.147,0-11.13,4.983-11.13,11.13c0,6.147,4.983,11.13,11.13,11.13h2.44
	C291.279,289.391,296.262,284.408,296.262,278.261z"/>
<path style="fill:#939B48;" d="M189.217,422.956c17.673-16.548,27.804-39.817,27.804-64.038v-6.374c0-3.423,1.471-6.681,4.04-8.942
	c12.62-11.115,34.263-18.583,53.857-18.583c1.668,0,3.339,0.056,5.004,0.167c13.923-19.172,36.376-30.796,60.34-30.796
	c24.012,0,46.474,11.648,60.393,30.868c1.989-0.159,3.982-0.239,5.974-0.239c41.086,0,74.512,33.426,74.512,74.512
	c0,7.965-1.298,15.897-3.784,23.427H189.217V422.956z"/>
<path style="fill:#60682E;" d="M473.434,422.956H213.452c0.685-4.404,1.038-8.878,1.038-13.384v-6.374
	c0-3.423,1.471-6.68,4.04-8.942c12.62-11.115,34.263-18.583,53.857-18.583c1.668,0,3.339,0.056,5.004,0.166
	c13.923-19.171,36.375-30.795,60.34-30.795c24.012,0,46.474,11.648,60.393,30.868c1.989-0.159,3.982-0.239,5.974-0.239
	C435.575,375.672,462.536,395.303,473.434,422.956z M50.921,136.002c-2.285-5.707-8.766-8.481-14.47-6.195
	c-5.707,2.285-8.481,8.764-6.196,14.47L89.454,292.13c1.742,4.35,5.92,6.995,10.337,6.995c1.377,0,2.778-0.257,4.134-0.8
	c5.707-2.285,8.481-8.764,6.196-14.47L50.921,136.002z M123.625,0.008c-6.143,0.218-10.947,5.375-10.729,11.518l9.545,269.265
	c0.213,6.008,5.151,10.735,11.116,10.735c0.134,0,0.267-0.002,0.402-0.007c6.143-0.218,10.947-5.375,10.729-11.518l-9.544-269.265
	C134.925,4.595,129.766-0.219,123.625,0.008z"/>
<path style="fill:#5A482F;" d="M512,422.956c0,6.147-4.838,11.13-10.807,11.13h-90.435l-43.878,72.544
	c-2.017,3.334-5.629,5.369-9.524,5.369H154.645c-3.896,0-7.507-2.037-9.524-5.369l-43.878-72.544H10.807
	C4.838,434.087,0,429.104,0,422.956c0-6.147,4.838-11.13,10.807-11.13h490.386C507.162,411.826,512,416.809,512,422.956z"/>
<path style="fill:#7D684D;" d="M101.242,434.087h309.515l-43.878,72.544c-2.017,3.334-5.629,5.369-9.524,5.369h-202.71
	c-3.896,0-7.507-2.037-9.524-5.369L101.242,434.087z"/>
<path style="fill:#DB6D53;" d="M219.518,360.194c0,51.316-41.749,93.064-93.065,93.064c-51.315,0-93.062-41.748-93.062-93.064
	s41.747-93.064,93.062-93.064C177.77,267.13,219.518,308.878,219.518,360.194z"/>
<path style="fill:#612324;" d="M104.05,347.257c-2.061,3.571-5.803,5.567-9.65,5.567c-1.888,0-3.802-0.481-5.554-1.493l-9.043-5.22
	c-5.324-3.073-7.148-9.88-4.075-15.204c3.073-5.323,9.88-7.148,15.204-4.075l9.043,5.22
	C105.298,335.126,107.123,341.934,104.05,347.257z M88.845,369.055l-9.043,5.22c-5.324,3.073-7.148,9.881-4.075,15.204
	c2.061,3.571,5.802,5.567,9.65,5.567c1.888,0,3.802-0.481,5.554-1.493l9.043-5.22c5.324-3.073,7.148-9.88,4.075-15.204
	C100.976,367.806,94.17,365.983,88.845,369.055z M126.453,301.62c-6.147,0-11.13,4.983-11.13,11.13v10.443
	c0,6.147,4.983,11.13,11.13,11.13c6.147,0,11.13-4.983,11.13-11.13v-10.443C137.583,306.603,132.6,301.62,126.453,301.62z
	 M126.453,386.065c-6.147,0-11.13,4.983-11.13,11.13v10.444c0,6.147,4.983,11.13,11.13,11.13c6.147,0,11.13-4.983,11.13-11.13
	v-10.444C137.583,391.048,132.6,386.065,126.453,386.065z M230.648,360.194c0,57.453-46.742,104.194-104.195,104.194
	c-57.452,0-104.192-46.741-104.192-104.194S69.001,256,126.453,256C183.907,256,230.648,302.741,230.648,360.194z M208.387,360.194
	c0-45.178-36.756-81.933-81.934-81.933c-45.176,0-81.931,36.755-81.931,81.933s36.754,81.933,81.931,81.933
	C171.631,442.128,208.387,405.373,208.387,360.194z M173.106,374.275l-9.047-5.22c-5.323-3.073-12.131-1.248-15.203,4.077
	c-3.073,5.324-1.248,12.131,4.077,15.203l9.047,5.22c1.752,1.012,3.664,1.491,5.553,1.491c3.848,0,7.59-1.997,9.65-5.569
	C180.256,384.155,178.431,377.348,173.106,374.275z M161.98,326.832l-9.047,5.22c-5.325,3.072-7.15,9.879-4.077,15.203
	c2.061,3.572,5.802,5.569,9.65,5.569c1.888,0,3.801-0.481,5.553-1.491l9.047-5.22c5.325-3.072,7.15-9.879,4.077-15.203
	C174.111,325.584,167.305,323.76,161.98,326.832z"/>
</svg>