<svg xmlns="http://www.w3.org/2000/svg" viewBox="0 0 64 64"><g id="_22-Cart" data-name="22-Cart"><path d="M50,21H3a2.006,2.006,0,0,0-2,2v.64a1.888,1.888,0,0,0,.13.7L7.56,41.61A1.987,1.987,0,0,0,9.46,43H43l.11.04,7.22-21.93Z" style="fill:#febd55"/><circle cx="11" cy="56" r="3" style="fill:#393d48"/><circle cx="36" cy="56" r="3" style="fill:#393d48"/><path d="M39.13,21c.7-.64,1.87-1.25,1.87-2,0-1.02-2.16-1.77-2.37-2.721-.22-.98,1.4-2.62.99-3.5-.43-.9-2.69-.62-3.29-1.4s.16-2.97-.6-3.59-2.68.64-3.55.2-1.11-2.751-2.06-2.971c-.93-.22-2.13,1.76-3.12,1.76s-2.19-1.98-3.12-1.76c-.95.22-1.19,2.541-2.05,2.971-.88.44-2.8-.82-3.56-.2s.01,2.82-.59,3.59-2.87.5-3.3,1.4c-.41.88,1.21,2.52.99,3.5C15.16,17.23,13,17.98,13,19c0,.75,1.17,1.36,1.87,2a1.549,1.549,0,0,1,.5.721c.22.98-1.4,2.62-.99,3.5.43.9,2.69.62,3.29,1.4s-.16,2.97.6,3.59,2.68-.64,3.55-.2,1.11,2.751,2.06,2.971c.93.22,2.13-1.76,3.12-1.76s2.19,1.98,3.12,1.76c.95-.22,1.19-2.541,2.05-2.971.88-.44,2.8.82,3.56.2s-.01-2.82.59-3.59,2.87-.5,3.3-1.4c.41-.88-1.21-2.52-.99-3.5A1.549,1.549,0,0,1,39.13,21Z" style="fill:#cb3541"/><path d="M36.531,20.572C37.081,20.069,38,19.589,38,19c0-.8-1.7-1.391-1.862-2.138-.173-.77,1.1-2.059.778-2.75-.338-.707-2.114-.487-2.585-1.1s.125-2.334-.472-2.822-2.105.5-2.789.157S30.2,8.186,29.451,8.013C28.721,7.841,27.778,9.4,27,9.4s-1.721-1.556-2.451-1.384c-.747.173-.935,2-1.611,2.334-.692.346-2.2-.644-2.8-.157s.008,2.216-.464,2.822-2.255.393-2.593,1.1c-.322.691.951,1.98.778,2.75C17.7,17.609,16,18.2,16,19c0,.589.919,1.069,1.469,1.572a1.209,1.209,0,0,1,.393.566c.173.77-1.1,2.059-.778,2.75.338.707,2.114.487,2.585,1.1s-.125,2.334.472,2.822,2.105-.5,2.789-.157.872,2.161,1.619,2.334c.73.172,1.673-1.384,2.451-1.384s1.721,1.556,2.451,1.384c.747-.173.935-2,1.611-2.334.692-.346,2.2.644,2.8.157s-.008-2.216.464-2.822,2.255-.393,2.593-1.1c.322-.691-.951-1.98-.778-2.75A1.209,1.209,0,0,1,36.531,20.572Z" style="fill:#ff6161"/><rect x="9" y="20" width="2" height="2"/><path d="M54.447,12A2.993,2.993,0,0,0,51.6,14.062L49.644,20H42v2h6.986L47.67,26H41v2h6.012L46,31.075V31H37v2h8.367l-.988,3H15v2H43.721l-1.316,4H9.463a1.015,1.015,0,0,1-.969-.742L2.063,23.99A1.006,1.006,0,0,1,2,23.64V23a1,1,0,0,1,1-1H7V20H3a3,3,0,0,0-3,3v.64a3.008,3.008,0,0,0,.188,1.047L6.6,41.909A2.987,2.987,0,0,0,9.463,44H41.747l-.686,2.087A2.986,2.986,0,0,1,38.264,48H10a3,3,0,0,0-3,3v5a4,4,0,1,0,4-4,3.959,3.959,0,0,0-2,.556V51a1,1,0,0,1,1-1H32.184A2.966,2.966,0,0,0,32,51v5a4,4,0,1,0,4-4,3.959,3.959,0,0,0-2,.556V51a1,1,0,0,1,1-1h3.264a4.986,4.986,0,0,0,4.678-3.237L53.5,14.688A1,1,0,0,1,54.447,14H63V12ZM11,54a2,2,0,1,1-2,2A2,2,0,0,1,11,54Zm25,0a2,2,0,1,1-2,2A2,2,0,0,1,36,54Z"/><path d="M13.606,21.261a6.664,6.664,0,0,1,.785.652,4.078,4.078,0,0,1-.433,1.049,3.075,3.075,0,0,0-.479,2.687c.439.933,1.529,1.149,2.405,1.323a7.247,7.247,0,0,1,.984.231,4.105,4.105,0,0,1,.051,1.123,3.09,3.09,0,0,0,.718,2.659c.793.648,1.864.361,2.725.132a9.454,9.454,0,0,1,.981-.233h0a4.175,4.175,0,0,1,.505.967c.379.878.808,1.875,1.807,2.106.979.232,1.781-.468,2.487-1.083a7.191,7.191,0,0,1,.822-.661,4.036,4.036,0,0,1,.89.662A3.477,3.477,0,0,0,29.959,34a1.653,1.653,0,0,0,.383-.045c1-.231,1.429-1.228,1.807-2.105a9.947,9.947,0,0,1,.432-.932,3.692,3.692,0,0,1,1.055.2c.864.231,1.933.518,2.726-.132a3.086,3.086,0,0,0,.718-2.658,7.129,7.129,0,0,1,.008-1.068,3.923,3.923,0,0,1,1.028-.287c.875-.174,1.965-.39,2.4-1.321a3.074,3.074,0,0,0-.479-2.688,6.226,6.226,0,0,1-.446-.991,3.99,3.99,0,0,1,.8-.711C41.109,20.715,42,20.034,42,19s-.891-1.715-1.606-2.261a6.664,6.664,0,0,1-.785-.652,4.078,4.078,0,0,1,.433-1.049,3.075,3.075,0,0,0,.479-2.687c-.439-.933-1.529-1.149-2.405-1.323a7.247,7.247,0,0,1-.984-.231,4.105,4.105,0,0,1-.051-1.123,3.09,3.09,0,0,0-.718-2.659c-.793-.649-1.863-.361-2.725-.132a9.454,9.454,0,0,1-.981.233h0a4.175,4.175,0,0,1-.505-.967c-.379-.878-.808-1.875-1.807-2.106-.979-.233-1.781.468-2.487,1.083a7.191,7.191,0,0,1-.822.661,4.036,4.036,0,0,1-.89-.662c-.706-.614-1.5-1.313-2.486-1.082-1,.231-1.429,1.228-1.807,2.1a9.947,9.947,0,0,1-.432.932,3.692,3.692,0,0,1-1.055-.2c-.863-.231-1.933-.519-2.726.132a3.086,3.086,0,0,0-.718,2.658,7.129,7.129,0,0,1-.008,1.068,3.923,3.923,0,0,1-1.028.287c-.875.174-1.965.39-2.4,1.321a3.074,3.074,0,0,0,.479,2.688,6.226,6.226,0,0,1,.446.991,3.99,3.99,0,0,1-.8.711C12.891,17.285,12,17.966,12,19S12.891,20.715,13.606,21.261Zm1.214-2.933A3.478,3.478,0,0,0,16.348,16.5a3.689,3.689,0,0,0-.607-2.366,6.3,6.3,0,0,1-.406-.9,6.114,6.114,0,0,1,.938-.236A3.489,3.489,0,0,0,18.465,12a3.6,3.6,0,0,0,.454-2.388,6.628,6.628,0,0,1,.017-.995,6.644,6.644,0,0,1,.911.2,3.483,3.483,0,0,0,2.422.074,3.512,3.512,0,0,0,1.418-1.947,7.049,7.049,0,0,1,.428-.879,6.812,6.812,0,0,1,.714.571A3.548,3.548,0,0,0,27,7.784a3.545,3.545,0,0,0,2.17-1.151,7.19,7.19,0,0,1,.715-.572,6.859,6.859,0,0,1,.428.88,3.516,3.516,0,0,0,1.419,1.947,3.475,3.475,0,0,0,2.421-.073,6.542,6.542,0,0,1,.912-.2,6.628,6.628,0,0,1,.017,1A3.6,3.6,0,0,0,35.537,12a3.48,3.48,0,0,0,2.19.99,6.114,6.114,0,0,1,.938.236,6.357,6.357,0,0,1-.405.9,3.689,3.689,0,0,0-.607,2.366,3.479,3.479,0,0,0,1.527,1.831,5.622,5.622,0,0,1,.783.672,5.69,5.69,0,0,1-.783.672A3.478,3.478,0,0,0,37.652,21.5a3.689,3.689,0,0,0,.607,2.366,6.3,6.3,0,0,1,.406.9,6.114,6.114,0,0,1-.938.236A3.489,3.489,0,0,0,35.535,26a3.6,3.6,0,0,0-.454,2.388,6.628,6.628,0,0,1-.017,1,6.644,6.644,0,0,1-.911-.2,3.472,3.472,0,0,0-2.422-.074,3.519,3.519,0,0,0-1.419,1.947,6.911,6.911,0,0,1-.427.879,6.812,6.812,0,0,1-.714-.571A3.548,3.548,0,0,0,27,30.216a3.545,3.545,0,0,0-2.17,1.151,7.19,7.19,0,0,1-.715.572,6.859,6.859,0,0,1-.428-.88,3.516,3.516,0,0,0-1.419-1.947,2.036,2.036,0,0,0-.911-.2,6,6,0,0,0-1.51.269,6.542,6.542,0,0,1-.912.2,6.628,6.628,0,0,1-.017-1A3.6,3.6,0,0,0,18.463,26a3.48,3.48,0,0,0-2.19-.99,6.114,6.114,0,0,1-.938-.236,6.357,6.357,0,0,1,.4-.905,3.689,3.689,0,0,0,.607-2.366,3.479,3.479,0,0,0-1.527-1.831A5.622,5.622,0,0,1,14.037,19,5.69,5.69,0,0,1,14.82,18.328Z"/><rect x="18.515" y="18" width="16.971" height="2" transform="translate(-5.527 24.657) rotate(-45)"/><path d="M30,21a3,3,0,1,0,3,3A3,3,0,0,0,30,21Zm0,4a1,1,0,1,1,1-1A1,1,0,0,1,30,25Z"/><path d="M24,17a3,3,0,1,0-3-3A3,3,0,0,0,24,17Zm0-4a1,1,0,1,1-1,1A1,1,0,0,1,24,13Z"/><rect x="11" y="31" width="6" height="2"/><rect x="8" y="26" width="5" height="2"/></g></svg>