<svg xmlns="http://www.w3.org/2000/svg" viewBox="0 0 512 512" id="contact">
  <rect width="355" height="497" x="78.5" y="7.5" fill="#83c9ee" rx="30"></rect>
  <path fill="#52bbe9" d="M403.5 7.5h-45a30 30 0 0 1 30 30v437a30 30 0 0 1-30 30h45a30 30 0 0 0 30-30v-437a30 30 0 0 0-30-30Z"></path>
  <path fill="#eb304a" d="M302.563 382.58h-93.126a42.65 42.65 0 0 1-42.65-42.65 55.9 55.9 0 0 1 29.609-49.33L256 258.832l59.604 31.766a55.9 55.9 0 0 1 29.61 49.332 42.65 42.65 0 0 1-42.65 42.65Z"></path>
  <path fill="#e4222e" d="M315.604 290.6 256 258.832l-22.5 11.992 37.104 19.774a55.9 55.9 0 0 1 29.609 49.332 42.65 42.65 0 0 1-42.65 42.65h45a42.65 42.65 0 0 0 42.65-42.65 55.9 55.9 0 0 0-29.609-49.332Z"></path>
  <path fill="#fdd8ae" d="M283.85 241.66v24.37a27.37 27.37 0 0 1-54.74 0v-24.37a3.329 3.329 0 0 1 3.33-3.33h48.08a3.329 3.329 0 0 1 3.33 3.33Z"></path>
  <path fill="#fbbf7d" d="M283.85 241.66v21.4a53.897 53.897 0 0 1-54.74.56v-21.96a3.329 3.329 0 0 1 3.33-3.33h48.08a3.329 3.329 0 0 1 3.33 3.33Z"></path>
  <path fill="#fdd8ae" d="M309.86 183.27v18.68a53.86 53.86 0 1 1-107.72 0v-18.68a53.86 53.86 0 0 1 107.72 0Z"></path>
  <path fill="#fbbf7d" d="M294.08 145.19A53.848 53.848 0 0 0 241 131.553a53.851 53.851 0 0 1 38.86 51.717v18.68A53.88 53.88 0 0 1 241 253.676a53.85 53.85 0 0 0 68.86-51.726v-18.68a53.682 53.682 0 0 0-15.78-38.08Z"></path>
  <path fill="#57565c" d="M309.86 183.27v5.23l-.01.03a77.412 77.412 0 0 1-47.15 3.14 76.01 76.01 0 0 1-30.26-15.71 24.976 24.976 0 0 1-7.32 12.29c-9.25 8.35-21.48 6.05-22.97 5.74l-.01-.02v-10.7a53.86 53.86 0 0 1 107.72 0Z"></path>
  <path fill="#3c3b41" d="M309.86 183.27v5.23l-.01.03a78.786 78.786 0 0 1-29.99 5.45v-10.71A53.86 53.86 0 0 0 241 131.55c.6-.17 1.19-.34 1.8-.49a53.012 53.012 0 0 1 5.53-1.09q.945-.135 1.89-.24c.54-.06 1.09-.11 1.64-.15.18-.02.36-.03.54-.04.38-.03.77-.05 1.16-.06.32-.02.65-.03.98-.04.48-.01.97-.02 1.46-.02a53.859 53.859 0 0 1 53.86 53.85Z"></path>
  <path fill="#787681" d="M55.5 176h39a15 15 0 0 1 15 15 15 15 0 0 1-15 15h-39a15 15 0 0 1-15-15 15 15 0 0 1 15-15Z"></path>
  <path fill="#57565c" d="M94.5 176h-30a15 15 0 1 1 0 30h30a15 15 0 1 0 0-30Z"></path>
  <path fill="#787681" d="M55.5 306h39a15 15 0 0 1 15 15 15 15 0 0 1-15 15h-39a15 15 0 0 1-15-15 15 15 0 0 1 15-15Z"></path>
  <path fill="#57565c" d="M94.5 306h-30a15 15 0 1 1 0 30h30a15 15 0 1 0 0-30Z"></path>
  <rect width="69" height="30" x="40.5" y="46" fill="#787681" rx="15"></rect>
  <path fill="#57565c" d="M94.5 46h-30a15 15 0 0 1 0 30h30a15 15 0 1 0 0-30Z"></path>
  <path fill="#787681" d="M55.5 436h39a15 15 0 0 1 15 15 15 15 0 0 1-15 15h-39a15 15 0 0 1-15-15 15 15 0 0 1 15-15Z"></path>
  <path fill="#57565c" d="M94.5 436h-30a15 15 0 0 1 0 30h30a15 15 0 0 0 0-30Z"></path>
  <path fill="#3c3b41" d="M403.5 0h-295A37.542 37.542 0 0 0 71 37.5v1H55.5a22.5 22.5 0 0 0 0 45H71v85H55.5a22.5 22.5 0 0 0 0 45H71v85H55.5a22.5 22.5 0 0 0 0 45H71v85H55.5a22.5 22.5 0 0 0 0 45H71v1a37.542 37.542 0 0 0 37.5 37.5h295a37.542 37.542 0 0 0 37.5-37.5v-437A37.542 37.542 0 0 0 403.5 0Zm-348 68.5a7.5 7.5 0 0 1 0-15h39a7.5 7.5 0 0 1 0 15Zm0 130a7.5 7.5 0 0 1 0-15h39a7.5 7.5 0 0 1 0 15Zm0 130a7.5 7.5 0 0 1 0-15h39a7.5 7.5 0 0 1 0 15Zm0 130a7.5 7.5 0 0 1 0-15h39a7.5 7.5 0 0 1 0 15Zm370.5 16a22.526 22.526 0 0 1-22.5 22.5h-295A22.526 22.526 0 0 1 86 474.5v-1h8.5a22.5 22.5 0 0 0 0-45H86v-85h8.5a22.5 22.5 0 0 0 0-45H86v-85h8.5a22.5 22.5 0 0 0 0-45H86v-85h8.5a22.5 22.5 0 0 0 0-45H86v-1A22.526 22.526 0 0 1 108.5 15h295A22.526 22.526 0 0 1 426 37.5ZM319.128 283.982l-27.93-14.887c.09-1.018.152-2.04.152-3.065v-13.98a61.309 61.309 0 0 0 26.005-50.1v-18.675a61.355 61.355 0 0 0-122.71 0V201.95a61.338 61.338 0 0 0 26.965 50.784v13.296c0 .86.042 1.719.106 2.575l-28.843 15.376a63.388 63.388 0 0 0-33.583 55.949 50.207 50.207 0 0 0 50.15 50.15h93.12a50.143 50.143 0 0 0 50.15-50.15 63.266 63.266 0 0 0-33.582-55.948ZM209.645 183.275a46.354 46.354 0 0 1 92.708-.06 69.571 69.571 0 0 1-37.798 1.194 68.794 68.794 0 0 1-27.259-14.168 7.5 7.5 0 0 0-12.111 3.837 16.653 16.653 0 0 1-15.54 12.853Zm0 18.675v-.006a32.555 32.555 0 0 0 20.496-8.123 31.194 31.194 0 0 0 5.304-6.233 82.46 82.46 0 0 0 66.91 11.207v3.155a46.355 46.355 0 0 1-92.71 0Zm66.705 57.871v6.21a19.87 19.87 0 1 1-39.74 0v-5.884a61.144 61.144 0 0 0 39.74-.326Zm51.067 104.965a34.92 34.92 0 0 1-24.857 10.294h-93.12a35.19 35.19 0 0 1-35.15-35.15 48.387 48.387 0 0 1 25.638-42.712l26.218-13.976a34.875 34.875 0 0 0 60.435.389l25.493 13.588a48.298 48.298 0 0 1 25.636 42.71 34.918 34.918 0 0 1-10.293 24.857Z"></path>
</svg>
