<svg xmlns="http://www.w3.org/2000/svg" viewBox="0 0 32 32"><defs><style>.cls-1{fill:#a1d8df;}.cls-2{fill:#68c7d3;}.cls-3{fill:#30acc2;}.cls-4{fill:#d1e6e9;}</style></defs><title>Fruit</title><g id="Fruit"><path class="cls-1" d="M16,7c0-2.28,1.14-3.76,3-5a3,3,0,0,0-2.27-1,3.34,3.34,0,0,0-1.56.41C12.68,2.66,13,5.08,13,7Z"/><path class="cls-1" d="M10,7c0-2.28-1.14-3.76-3-5A3,3,0,0,1,9.27,1a3.34,3.34,0,0,1,1.56.41C13.32,2.66,13,5.08,13,7Z"/><path class="cls-2" d="M20,11V22H6c0-11.84,0-11.22.06-11.76A5,5,0,0,1,8.72,6.55C10.15,5.82,11.15,6,15,6A5,5,0,0,1,20,11Z"/><path class="cls-3" d="M20,16.32V13.68l-2-1.75,2-1.68a5,5,0,0,0-.76-2l-2.72,2.36L14.53,8.93l2.75-2.38A5,5,0,0,0,15,6c-.2,0,.13-.23-2,1.61C10.87,5.77,11.2,6,11,6a5,5,0,0,0-2.28.55l2.75,2.38L9.54,10.61,6.82,8.25a4.91,4.91,0,0,0-.76,2l2,1.69L6,13.68v2.64l3.54-3.06,1.93,1.67L6,19.67V22c.54,0-.37.65,7-5.74C20.37,22.64,19.47,22,20,22V19.68l-5.47-4.75,1.93-1.67Zm-7-2.71-1.93-1.68L13,10.26l1.93,1.67Z"/><path class="cls-3" d="M24,17H22v-.84a5.39,5.39,0,0,1,3.68-5.11l.64,1.9A3.37,3.37,0,0,0,24,16.16Z"/><path class="cls-1" d="M25.34,15.22a5.17,5.17,0,0,1-3.7.33A6.59,6.59,0,0,0,19.3,15,4.31,4.31,0,0,0,15,19.3c0,3.52.13,6.86,3.1,10.57A3,3,0,0,0,20.44,31c1.07,0,1.47.09,1.85-.29a1,1,0,0,1,1.42,0,1,1,0,0,0,.7.29c1.28,0,2.48.14,3.49-1.13A14.08,14.08,0,0,0,31,21V19.3A4.3,4.3,0,0,0,25.34,15.22Z"/><path class="cls-2" d="M25.25,24.5C18.64,36,1,31.26,1,18a12.9,12.9,0,0,1,1.75-6.5Z"/><path class="cls-4" d="M23.52,23.5C17.9,33.23,3,29.19,3,18a10.9,10.9,0,0,1,1.48-5.5Z"/><path class="cls-3" d="M15,26a1,1,0,0,1-2,0c0-.55.45-2,1-2S15,25.45,15,26Z"/><path class="cls-3" d="M19.37,24.29a1,1,0,0,1-1.74,1c-.27-.47-.61-1.95-.13-2.23S19.09,23.82,19.37,24.29Z"/><path class="cls-3" d="M10.37,25.29a1,1,0,0,1-1.74-1c.28-.47,1.39-1.5,1.87-1.23S10.64,24.82,10.37,25.29Z"/><path class="cls-3" d="M6.71,22.37a1,1,0,0,1-1-1.74c.47-.27,2-.61,2.23-.13S7.18,22.09,6.71,22.37Z"/><path class="cls-3" d="M5,18a1,1,0,0,1,0-2c.55,0,2,.45,2,1S5.55,18,5,18Z"/></g></svg>